<mxfile host="app.diagrams.net" agent="Mozilla/5.0 (Windows NT 10.0; Win64; x64) AppleWebKit/537.36 (KHTML, like Gecko) Chrome/138.0.0.0 Safari/537.36" version="28.0.7">
  <diagram name="Page-1" id="KRo9A2LiOJRDKIhcD8c4">
    <mxGraphModel dx="3486" dy="1570" grid="1" gridSize="10" guides="1" tooltips="1" connect="1" arrows="1" fold="1" page="1" pageScale="1" pageWidth="850" pageHeight="1100" math="0" shadow="0">
      <root>
        <mxCell id="0" />
        <mxCell id="1" parent="0" />
        <mxCell id="TL9bEmirWY8VUMgG1I4n-11" value="" style="rounded=1;whiteSpace=wrap;html=1;arcSize=32;imageHeight=24;absoluteArcSize=1;" vertex="1" parent="1">
          <mxGeometry x="1509" y="502.5" width="1060" height="870" as="geometry" />
        </mxCell>
        <mxCell id="TL9bEmirWY8VUMgG1I4n-2" value="&lt;font style=&quot;font-size: 22px;&quot;&gt;Online Inference (Real-Time)&lt;/font&gt;" style="text;html=1;align=center;verticalAlign=middle;whiteSpace=wrap;rounded=0;" vertex="1" parent="1">
          <mxGeometry x="830" y="330" width="570" height="30" as="geometry" />
        </mxCell>
        <mxCell id="TL9bEmirWY8VUMgG1I4n-6" value="&lt;font style=&quot;font-size: 16px;&quot;&gt;API Gateway&lt;/font&gt;" style="text;html=1;align=center;verticalAlign=middle;whiteSpace=wrap;rounded=0;" vertex="1" parent="1">
          <mxGeometry x="-60" y="445" width="105" height="40" as="geometry" />
        </mxCell>
        <mxCell id="TL9bEmirWY8VUMgG1I4n-7" value="" style="rounded=1;whiteSpace=wrap;html=1;" vertex="1" parent="1">
          <mxGeometry x="220" y="1095" width="310" height="310" as="geometry" />
        </mxCell>
        <mxCell id="TL9bEmirWY8VUMgG1I4n-8" value="&lt;font style=&quot;font-size: 16px;&quot;&gt;Feature Engine&lt;/font&gt;" style="text;html=1;align=center;verticalAlign=middle;whiteSpace=wrap;rounded=0;" vertex="1" parent="1">
          <mxGeometry x="317.5" y="1040" width="105" height="40" as="geometry" />
        </mxCell>
        <mxCell id="TL9bEmirWY8VUMgG1I4n-9" value="" style="rounded=1;whiteSpace=wrap;html=1;" vertex="1" parent="1">
          <mxGeometry x="610" y="1095" width="310" height="310" as="geometry" />
        </mxCell>
        <mxCell id="TL9bEmirWY8VUMgG1I4n-10" value="&lt;font style=&quot;font-size: 16px;&quot;&gt;Feature Store&lt;/font&gt;" style="text;html=1;align=center;verticalAlign=middle;whiteSpace=wrap;rounded=0;" vertex="1" parent="1">
          <mxGeometry x="712.5" y="1040" width="105" height="40" as="geometry" />
        </mxCell>
        <mxCell id="TL9bEmirWY8VUMgG1I4n-12" value="&lt;font style=&quot;font-size: 16px;&quot;&gt;Inference Service&lt;/font&gt;" style="text;html=1;align=center;verticalAlign=middle;whiteSpace=wrap;rounded=0;" vertex="1" parent="1">
          <mxGeometry x="2001.25" y="410" width="137.5" height="40" as="geometry" />
        </mxCell>
        <mxCell id="TL9bEmirWY8VUMgG1I4n-28" style="edgeStyle=orthogonalEdgeStyle;rounded=0;orthogonalLoop=1;jettySize=auto;html=1;" edge="1" parent="1" source="TL9bEmirWY8VUMgG1I4n-24" target="TL9bEmirWY8VUMgG1I4n-25">
          <mxGeometry relative="1" as="geometry" />
        </mxCell>
        <mxCell id="TL9bEmirWY8VUMgG1I4n-24" value="Card Holder" style="shape=umlActor;verticalLabelPosition=bottom;verticalAlign=top;html=1;outlineConnect=0;" vertex="1" parent="1">
          <mxGeometry x="-600" y="670" width="70" height="140" as="geometry" />
        </mxCell>
        <mxCell id="TL9bEmirWY8VUMgG1I4n-53" value="" style="rounded=1;whiteSpace=wrap;html=1;arcSize=32;absoluteArcSize=1;" vertex="1" parent="1">
          <mxGeometry x="-255" y="492.5" width="495" height="495" as="geometry" />
        </mxCell>
        <mxCell id="TL9bEmirWY8VUMgG1I4n-48" style="edgeStyle=orthogonalEdgeStyle;rounded=0;orthogonalLoop=1;jettySize=auto;html=1;" edge="1" parent="1" source="TL9bEmirWY8VUMgG1I4n-25" target="TL9bEmirWY8VUMgG1I4n-46">
          <mxGeometry relative="1" as="geometry" />
        </mxCell>
        <mxCell id="TL9bEmirWY8VUMgG1I4n-25" value="Merchant" style="shape=umlActor;verticalLabelPosition=bottom;verticalAlign=top;html=1;outlineConnect=0;" vertex="1" parent="1">
          <mxGeometry x="-420" y="670" width="70" height="140" as="geometry" />
        </mxCell>
        <mxCell id="TL9bEmirWY8VUMgG1I4n-37" value="" style="rounded=1;whiteSpace=wrap;html=1;arcSize=64;absoluteArcSize=1;" vertex="1" parent="1">
          <mxGeometry x="50" y="760" width="170" height="170" as="geometry" />
        </mxCell>
        <mxCell id="TL9bEmirWY8VUMgG1I4n-38" value="" style="rounded=1;whiteSpace=wrap;html=1;absoluteArcSize=1;arcSize=64;" vertex="1" parent="1">
          <mxGeometry x="50" y="550" width="170" height="170" as="geometry" />
        </mxCell>
        <mxCell id="TL9bEmirWY8VUMgG1I4n-50" style="edgeStyle=orthogonalEdgeStyle;rounded=0;orthogonalLoop=1;jettySize=auto;html=1;" edge="1" parent="1" source="TL9bEmirWY8VUMgG1I4n-46" target="TL9bEmirWY8VUMgG1I4n-37">
          <mxGeometry relative="1" as="geometry" />
        </mxCell>
        <mxCell id="TL9bEmirWY8VUMgG1I4n-49" style="edgeStyle=orthogonalEdgeStyle;rounded=0;orthogonalLoop=1;jettySize=auto;html=1;entryX=0;entryY=0.5;entryDx=0;entryDy=0;" edge="1" parent="1" source="TL9bEmirWY8VUMgG1I4n-46" target="TL9bEmirWY8VUMgG1I4n-38">
          <mxGeometry relative="1" as="geometry" />
        </mxCell>
        <mxCell id="TL9bEmirWY8VUMgG1I4n-46" value="" style="shape=image;verticalLabelPosition=bottom;labelBackgroundColor=default;verticalAlign=top;aspect=fixed;imageAspect=0;image=https://images.seeklogo.com/logo-png/39/2/kong-logo-png_seeklogo-394595.png;connectable=1;direction=east;container=0;noLabel=0;allowArrows=1;" vertex="1" parent="1">
          <mxGeometry x="-233.5" y="650" width="180" height="180" as="geometry" />
        </mxCell>
        <mxCell id="TL9bEmirWY8VUMgG1I4n-52" value="" style="endArrow=none;dashed=1;html=1;strokeWidth=2;rounded=0;jumpStyle=none;dashPattern=1 2;exitX=0.5;exitY=0;exitDx=0;exitDy=0;entryX=0.5;entryY=1;entryDx=0;entryDy=0;sourcePerimeterSpacing=0;targetPerimeterSpacing=-6;jumpSize=4;endSize=0;startSize=0;" edge="1" parent="1" source="TL9bEmirWY8VUMgG1I4n-37" target="TL9bEmirWY8VUMgG1I4n-38">
          <mxGeometry width="50" height="50" relative="1" as="geometry">
            <mxPoint x="170" y="740" as="sourcePoint" />
            <mxPoint x="220" y="690" as="targetPoint" />
            <Array as="points" />
          </mxGeometry>
        </mxCell>
        <mxCell id="TL9bEmirWY8VUMgG1I4n-54" value="" style="rounded=1;whiteSpace=wrap;html=1;arcSize=32;absoluteArcSize=1;" vertex="1" parent="1">
          <mxGeometry x="980" y="505" width="495" height="495" as="geometry" />
        </mxCell>
        <mxCell id="TL9bEmirWY8VUMgG1I4n-55" value="&lt;span style=&quot;font-size: 16px;&quot;&gt;Data Ingestion&lt;/span&gt;" style="text;html=1;align=center;verticalAlign=middle;whiteSpace=wrap;rounded=0;" vertex="1" parent="1">
          <mxGeometry x="1175" y="450" width="105" height="40" as="geometry" />
        </mxCell>
      </root>
    </mxGraphModel>
  </diagram>
</mxfile>
